<?xml version="1.0" encoding="utf-8"?>
<!-- Designed by Vexels.com - 2016 All Rights Reserved - https://vexels.com/terms-and-conditions/  -->

<svg version="1.1" id="Layer_1" xmlns="http://www.w3.org/2000/svg" xmlns:xlink="http://www.w3.org/1999/xlink" x="0px" y="0px"
	 width="1200px" height="1200px" viewBox="0 0 1200 1200" enable-background="new 0 0 1200 1200" xml:space="preserve">
<g>
	<g>
		<path fill="#575756" d="M745.271,796.57c0,25.209-20.347,45.556-45.519,45.556l0,0c-25.154,0-45.553-20.347-45.553-45.556V403.426
			c0-25.173,20.398-45.626,45.553-45.626l0,0c25.173,0,45.519,20.453,45.519,45.626V796.57z"/>
		<path fill="#575756" d="M545.874,796.57c0,25.209-20.365,45.556-45.52,45.556l0,0c-25.173,0-45.626-20.347-45.626-45.556V403.426
			c0-25.173,20.453-45.626,45.626-45.626l0,0c25.154,0,45.52,20.453,45.52,45.626V796.57z"/>
	</g>
	<path fill="#575756" d="M600.064,50.046C296.22,50.046,50,296.266,50,599.982c0,303.753,246.22,549.973,550.064,549.973
		c303.716,0,549.936-246.22,549.936-549.973C1150,296.266,903.78,50.046,600.064,50.046z M600.064,1041.611
		c-243.917,0-441.615-197.735-441.615-441.629c0-243.825,197.698-441.56,441.615-441.56c243.789,0,441.487,197.735,441.487,441.56
		C1041.551,843.877,843.853,1041.611,600.064,1041.611z"/>
</g>
</svg>
